<?xml version="1.0" standalone="no"?>
<!DOCTYPE svg PUBLIC "-//W3C//DTD SVG 20010904//EN"
 "http://www.w3.org/TR/2001/REC-SVG-20010904/DTD/svg10.dtd">
<svg version="1.0" xmlns="http://www.w3.org/2000/svg"
 width="70.000000pt" height="70.000000pt" viewBox="0 0 70.000000 70.000000"
 preserveAspectRatio="xMidYMid meet">
<metadata>
Created by potrace 1.11, written by Peter Selinger 2001-2013
</metadata>
<g transform="translate(0.000000,70.000000) scale(0.100000,-0.100000)"
fill="#000000" stroke="none">
<path d="M253 686 c-146 -47 -243 -170 -249 -316 -3 -67 13 -149 31 -162 5 -4
6 -8 2 -8 -22 0 88 -130 110 -130 7 0 13 -4 13 -9 0 -5 24 -19 53 -32 80 -35
201 -34 282 4 34 16 79 48 104 75 44 46 95 138 85 154 -3 4 -1 8 5 8 14 0 7
159 -9 195 -7 17 -14 32 -15 35 -7 33 -93 130 -114 130 -6 0 -11 4 -11 8 0 8
-41 32 -62 38 -5 1 -9 2 -10 4 -22 17 -169 21 -215 6z"/>
</g>
</svg>
